HIERARCHY
ROOT Hips
{
	OFFSET 0.000000 103.266502 0.000000
	CHANNELS 6 Xposition Yposition Zposition Xrotation Yrotation Zrotation 
	JOINT Spine
	{
		OFFSET -0.002400 12.777504 0.315300
		CHANNELS 3 Xrotation Yrotation Zrotation
		JOINT Spine1
		{
			OFFSET -0.002067 5.816869 0.032633
			CHANNELS 3 Xrotation Yrotation Zrotation
			JOINT Spine1_split
			{
				OFFSET -0.002067 5.816869 0.032633
				CHANNELS 3 Xrotation Yrotation Zrotation
				JOINT Spine2
				{
					OFFSET -0.002067 5.816869 0.032633
					CHANNELS 3 Xrotation Yrotation Zrotation
					JOINT Neck
					{
						OFFSET -0.003700 21.199493 -0.826900
						CHANNELS 3 Xrotation Yrotation Zrotation
						JOINT Head
						{
							OFFSET 0.000000 20.442200 4.834800
							CHANNELS 3 Xrotation Yrotation Zrotation
							JOINT HeadTop_End
							{
								OFFSET 0.000000 34.668396 4.968400
								CHANNELS 3 Xrotation Yrotation Zrotation
								End Site
								{
									OFFSET 0.000000 0.000000 0.000000
								}
							}
						}
					}
					JOINT LeftShoulder
					{
						OFFSET 3.288150 8.794197 -1.372250
						CHANNELS 3 Xrotation Yrotation Zrotation
						JOINT LeftShoulder_split
						{
							OFFSET 3.288150 8.794197 -1.372250
							CHANNELS 3 Xrotation Yrotation Zrotation
							JOINT LeftArm
							{
								OFFSET 11.953299 -2.279007 -0.146200
								CHANNELS 3 Xrotation Yrotation Zrotation
								JOINT LeftForeArm
								{
									OFFSET 18.448900 0.000000 0.000000
									CHANNELS 3 Xrotation Yrotation Zrotation
									JOINT LeftHand
									{
										OFFSET 29.527798 0.000000 0.000000
										CHANNELS 3 Xrotation Yrotation Zrotation
										JOINT LeftHandThumb1
										{
											OFFSET 10.739754 -2.369614 9.225399
											CHANNELS 3 Xrotation Yrotation Zrotation
											JOINT LeftHandThumb2
											{
												OFFSET 4.926170 -2.844131 2.844125
												CHANNELS 3 Xrotation Yrotation Zrotation
												JOINT LeftHandThumb3
												{
													OFFSET 4.614891 -2.664413 2.664409
													CHANNELS 3 Xrotation Yrotation Zrotation
													JOINT LeftHandThumb4
													{
														OFFSET 4.432465 -2.559082 2.559083
														CHANNELS 3 Xrotation Yrotation Zrotation
														End Site
														{
															OFFSET 0.000000 0.000000 0.000000
														}
													}
												}
											}
										}
										JOINT LeftHandIndex1
										{
											OFFSET 26.467674 0.187653 6.405298
											CHANNELS 3 Xrotation Yrotation Zrotation
											JOINT LeftHandIndex2
											{
												OFFSET 8.792900 0.000000 0.000000
												CHANNELS 3 Xrotation Yrotation Zrotation
												JOINT LeftHandIndex3
												{
													OFFSET 10.075203 0.000000 0.000000
													CHANNELS 3 Xrotation Yrotation Zrotation
													End Site
													{
														OFFSET 0.000000 0.000000 0.000000
													}
												}
											}
										}
										JOINT LeftHandMiddle1
										{
											OFFSET 25.764404 0.000000 0.000000
											CHANNELS 3 Xrotation Yrotation Zrotation
											JOINT LeftHandMiddle2
											{
												OFFSET 9.393974 0.000000 0.000000
												CHANNELS 3 Xrotation Yrotation Zrotation
												JOINT LeftHandMiddle3
												{
													OFFSET 10.771950 0.000000 0.000000
													CHANNELS 3 Xrotation Yrotation Zrotation
													End Site
													{
														OFFSET 0.000000 0.000000 0.000000
													}
												}
											}
										}
										JOINT LeftHandRing1
										{
											OFFSET 24.660927 0.144547 -6.225808
											CHANNELS 3 Xrotation Yrotation Zrotation
											JOINT LeftHandRing2
											{
												OFFSET 9.393799 0.000000 0.000000
												CHANNELS 3 Xrotation Yrotation Zrotation
												JOINT LeftHandRing3
												{
													OFFSET 9.928497 0.000000 0.000000
													CHANNELS 3 Xrotation Yrotation Zrotation
													End Site
													{
														OFFSET 0.000000 0.000000 0.000000
													}
												}
											}
										}
										JOINT LeftHandPinky1
										{
											OFFSET 23.655350 0.125290 -12.815412
											CHANNELS 3 Xrotation Yrotation Zrotation
											JOINT LeftHandPinky2
											{
												OFFSET 8.425102 0.000000 0.000000
												CHANNELS 3 Xrotation Yrotation Zrotation
												JOINT LeftHandPinky3
												{
													OFFSET 8.147003 0.000000 0.000000
													CHANNELS 3 Xrotation Yrotation Zrotation
													End Site
													{
														OFFSET 0.000000 0.000000 0.000000
													}
												}
											}
										}
									}
								}
							}
						}
					}
					JOINT RightShoulder
					{
						OFFSET -3.249400 8.794197 -1.372250
						CHANNELS 3 Xrotation Yrotation Zrotation
						JOINT RightShoulder_split
						{
							OFFSET -3.249400 8.794197 -1.372250
							CHANNELS 3 Xrotation Yrotation Zrotation
							JOINT RightArm
							{
								OFFSET -11.953299 -2.279007 -0.146200
								CHANNELS 3 Xrotation Yrotation Zrotation
								JOINT RightForeArm
								{
									OFFSET -18.448900 0.000000 0.000000
									CHANNELS 3 Xrotation Yrotation Zrotation
									JOINT RightHand
									{
										OFFSET -29.527802 0.000000 0.000000
										CHANNELS 3 Xrotation Yrotation Zrotation
										JOINT RightHandThumb1
										{
											OFFSET -10.739754 -2.369614 9.225399
											CHANNELS 3 Xrotation Yrotation Zrotation
											JOINT RightHandThumb2
											{
												OFFSET -4.926170 -2.844131 2.844125
												CHANNELS 3 Xrotation Yrotation Zrotation
												JOINT RightHandThumb3
												{
													OFFSET -4.614891 -2.664413 2.664409
													CHANNELS 3 Xrotation Yrotation Zrotation
													JOINT RightHandThumb4
													{
														OFFSET -4.432465 -2.559082 2.559083
														CHANNELS 3 Xrotation Yrotation Zrotation
														End Site
														{
															OFFSET 0.000000 0.000000 0.000000
														}
													}
												}
											}
										}
										JOINT RightHandIndex1
										{
											OFFSET -26.467674 0.187653 6.405298
											CHANNELS 3 Xrotation Yrotation Zrotation
											JOINT RightHandIndex2
											{
												OFFSET -8.792900 0.000000 0.000000
												CHANNELS 3 Xrotation Yrotation Zrotation
												JOINT RightHandIndex3
												{
													OFFSET -10.075203 0.000000 0.000000
													CHANNELS 3 Xrotation Yrotation Zrotation
													End Site
													{
														OFFSET 0.000000 0.000000 0.000000
													}
												}
											}
										}
										JOINT RightHandMiddle1
										{
											OFFSET -25.764404 0.000000 0.000000
											CHANNELS 3 Xrotation Yrotation Zrotation
											JOINT RightHandMiddle2
											{
												OFFSET -9.393974 0.000000 0.000000
												CHANNELS 3 Xrotation Yrotation Zrotation
												JOINT RightHandMiddle3
												{
													OFFSET -10.771950 0.000000 0.000000
													CHANNELS 3 Xrotation Yrotation Zrotation
													End Site
													{
														OFFSET 0.000000 0.000000 0.000000
													}
												}
											}
										}
										JOINT RightHandRing1
										{
											OFFSET -24.660927 0.144547 -6.225808
											CHANNELS 3 Xrotation Yrotation Zrotation
											JOINT RightHandRing2
											{
												OFFSET -9.393799 0.000000 0.000000
												CHANNELS 3 Xrotation Yrotation Zrotation
												JOINT RightHandRing3
												{
													OFFSET -9.928497 0.000000 0.000000
													CHANNELS 3 Xrotation Yrotation Zrotation
													End Site
													{
														OFFSET 0.000000 0.000000 0.000000
													}
												}
											}
										}
										JOINT RightHandPinky1
										{
											OFFSET -23.655350 0.125290 -12.815412
											CHANNELS 3 Xrotation Yrotation Zrotation
											JOINT RightHandPinky2
											{
												OFFSET -8.425102 0.000000 0.000000
												CHANNELS 3 Xrotation Yrotation Zrotation
												JOINT RightHandPinky3
												{
													OFFSET -8.147003 0.000000 0.000000
													CHANNELS 3 Xrotation Yrotation Zrotation
													End Site
													{
														OFFSET 0.000000 0.000000 0.000000
													}
												}
											}
										}
									}
								}
							}
						}
					}
				}
			}
		}
	}
	JOINT LeftUpLeg
	{
		OFFSET 11.394100 -6.187798 -0.413800
		CHANNELS 3 Xrotation Yrotation Zrotation
		JOINT LeftLeg
		{
			OFFSET 0.430247 -32.302673 3.732800
			CHANNELS 3 Xrotation Yrotation Zrotation
			JOINT LeftFoot
			{
				OFFSET -0.430247 -48.264931 -6.423300
				CHANNELS 3 Xrotation Yrotation Zrotation
				JOINT LeftToeBase
				{
					OFFSET 4.230900 -16.068199 23.438400
					CHANNELS 3 Xrotation Yrotation Zrotation
					JOINT LeftToe_End
					{
						OFFSET 4.510700 0.695400 19.974600
						CHANNELS 3 Xrotation Yrotation Zrotation
						End Site
						{
							OFFSET 0.000000 0.000000 0.000000
						}
					}
				}
			}
		}
	}
	JOINT RightUpLeg
	{
		OFFSET -11.333700 -6.187798 -0.413800
		CHANNELS 3 Xrotation Yrotation Zrotation
		JOINT RightLeg
		{
			OFFSET -0.430392 -32.302628 3.733000
			CHANNELS 3 Xrotation Yrotation Zrotation
			JOINT RightFoot
			{
				OFFSET 0.430392 -48.264973 -6.423500
				CHANNELS 3 Xrotation Yrotation Zrotation
				JOINT RightToeBase
				{
					OFFSET -4.230900 -16.068199 23.438400
					CHANNELS 3 Xrotation Yrotation Zrotation
					JOINT RightToe_End
					{
						OFFSET -4.510700 0.695400 19.974600
						CHANNELS 3 Xrotation Yrotation Zrotation
						End Site
						{
							OFFSET 0.000000 0.000000 0.000000
						}
					}
				}
			}
		}
	}
}
MOTION
Frames: 4
Frame Time: 0.016667
-0.439800 92.601570 3.956440 -13.180609 -1.769025 -5.129461 5.922175 -0.711540 3.095673 9.021537 -0.430000 -0.455594 0.000000 0.000000 0.000000 9.028560 -0.103888 -0.473627 15.499584 0.680418 0.863641 -2.573554 0.818022 5.726064 0.000001 0.000000 -0.000000 0.681782 3.908470 -11.397476 0.000000 0.000000 0.000000 74.323523 -65.285475 4.646500 0.000004 -18.010096 -0.000011 -25.659125 7.272763 -3.768741 21.734253 5.841480 -2.497397 -16.162755 18.936377 19.036130 -9.576515 8.451322 10.577064 -0.000000 0.000002 0.000002 0.152623 1.444570 -12.061577 0.086629 1.091013 -9.079585 0.000001 -0.000000 0.000000 0.152215 1.442685 -12.045588 0.086934 1.092926 -9.095561 0.000001 0.000001 0.000001 0.152623 1.444570 -12.061575 0.086631 1.091012 -9.079584 0.000001 -0.000000 0.000001 0.985192 5.412795 -11.600974 0.078384 -2.964046 -9.583911 0.000002 -0.000000 0.000003 1.412994 0.332767 10.813720 0.000000 0.000000 0.000000 8.850523 40.127180 57.894015 -0.000002 26.003468 0.000001 37.130356 -9.963349 12.845709 -0.389739 -6.638714 -15.665594 8.907257 -22.771347 0.157752 0.754306 -6.942800 -2.431193 0.000000 0.000001 -0.000000 0.174551 -1.551241 12.839272 0.140312 -1.392663 11.506928 -0.000001 0.000000 -0.000001 0.174556 -1.551248 12.839279 0.140305 -1.392646 11.506930 -0.000000 -0.000000 -0.000000 0.174549 -1.551241 12.839272 0.140311 -1.392663 11.506929 -0.000001 0.000000 -0.000002 0.174551 -1.551242 12.839272 0.140311 -1.392663 11.506930 -0.000001 0.000000 0.000001 -35.943877 19.752916 11.734539 42.397081 -8.942125 10.081318 3.393039 -8.025052 -0.503396 -0.920807 -0.000002 0.000000 -0.000000 -0.000000 -0.000000 -27.323205 -35.225956 -2.722522 39.149995 9.496303 -10.263494 0.933690 6.607720 -5.736235 -0.000018 -0.000000 -0.000001 -0.000000 -0.000000 0.000000 
-0.422552 92.603065 3.956600 -13.184397 -1.807093 -5.112763 5.921195 -0.707241 3.089155 9.018472 -0.421018 -0.454877 0.000000 0.000000 0.000000 9.025359 -0.094396 -0.473342 15.500807 0.683415 0.851795 -2.570577 0.837381 5.719966 0.000000 -0.000000 -0.000000 0.682937 3.924067 -11.425489 0.000000 0.000000 0.000000 74.279728 -65.233894 4.636000 -0.000006 -18.066229 0.000003 -25.471760 7.330777 -3.951213 21.734254 5.841479 -2.497397 -16.162758 18.936377 19.036132 -9.576517 8.451317 10.577062 0.000002 0.000005 0.000003 0.152624 1.444570 -12.061577 0.086631 1.091013 -9.079582 -0.000001 0.000000 -0.000001 0.152217 1.442685 -12.045589 0.086937 1.092926 -9.095565 0.000000 0.000000 0.000000 0.152621 1.444570 -12.061578 0.086633 1.091013 -9.079584 -0.000002 0.000000 0.000000 0.985193 5.412795 -11.600975 0.078386 -2.964047 -9.583910 -0.000000 -0.000000 0.000001 1.413252 0.336095 10.799355 0.000000 0.000000 0.000000 8.846312 40.120477 57.885040 0.000002 26.006519 -0.000002 37.193044 -9.934876 12.879320 -0.389739 -6.638712 -15.665596 8.907258 -22.771347 0.157749 0.754307 -6.942796 -2.431193 -0.000001 -0.000000 0.000001 0.174550 -1.551240 12.839272 0.140311 -1.392663 11.506929 -0.000000 0.000000 -0.000001 0.174554 -1.551248 12.839278 0.140306 -1.392646 11.506932 0.000000 0.000000 -0.000003 0.174549 -1.551240 12.839272 0.140313 -1.392662 11.506932 0.000001 0.000000 0.000000 0.174550 -1.551241 12.839272 0.140311 -1.392663 11.506930 -0.000001 -0.000000 0.000000 -35.934773 19.814973 11.736674 42.388451 -8.943567 10.081453 3.389380 -8.036256 -0.488784 -0.918805 0.000001 0.000001 -0.000000 -0.000000 -0.000000 -27.329523 -35.125040 -2.707751 39.156252 9.493580 -10.264549 0.940260 6.562355 -5.709613 -0.000018 -0.000000 -0.000001 -0.000000 -0.000000 -0.000000 
-0.406551 92.603973 3.957081 -13.188445 -1.842495 -5.094641 5.920302 -0.703279 3.080112 9.015933 -0.413233 -0.454230 0.000000 0.000000 0.000000 9.022704 -0.086283 -0.473039 15.501760 0.686837 0.839502 -2.569941 0.854905 5.720954 -0.000001 0.000000 0.000000 0.684060 3.939021 -11.452422 0.000000 0.000000 0.000000 74.202492 -65.177811 4.592540 0.000003 -18.130768 -0.000002 -25.270462 7.391016 -4.135378 21.734253 5.841480 -2.497396 -16.162762 18.936378 19.036132 -9.576517 8.451315 10.577061 0.000003 0.000000 -0.000001 0.152623 1.444570 -12.061577 0.086633 1.091013 -9.079585 0.000000 0.000000 0.000002 0.152213 1.442685 -12.045588 0.086929 1.092926 -9.095566 0.000001 -0.000000 0.000001 0.152620 1.444570 -12.061577 0.086631 1.091014 -9.079584 0.000001 -0.000000 0.000002 0.985191 5.412795 -11.600971 0.078382 -2.964047 -9.583908 0.000001 -0.000001 0.000002 1.414568 0.343948 10.791921 0.000000 0.000000 0.000000 8.851284 40.106652 57.862733 -0.000002 26.024359 0.000014 37.255776 -9.909329 12.917779 -0.389739 -6.638715 -15.665596 8.907257 -22.771349 0.157752 0.754305 -6.942798 -2.431192 -0.000000 -0.000002 -0.000000 0.174550 -1.551241 12.839275 0.140311 -1.392662 11.506928 -0.000001 0.000000 -0.000001 0.174555 -1.551248 12.839279 0.140308 -1.392646 11.506935 0.000000 -0.000001 -0.000001 0.174549 -1.551241 12.839274 0.140310 -1.392661 11.506929 0.000000 -0.000000 -0.000002 0.174550 -1.551242 12.839273 0.140310 -1.392663 11.506930 0.000001 -0.000000 0.000000 -35.924678 19.874032 11.736015 42.380545 -8.944995 10.081528 3.385686 -8.046122 -0.475070 -0.917042 0.000005 -0.000001 -0.000000 -0.000000 -0.000000 -27.339748 -35.028454 -2.698328 39.166063 9.489604 -10.266811 0.945498 6.526459 -5.683271 -0.000018 -0.000002 -0.000001 0.000000 -0.000002 -0.000000 
-0.392531 92.603951 3.958048 -13.192592 -1.874070 -5.075310 5.919453 -0.699741 3.068327 9.013794 -0.406899 -0.453622 0.000000 0.000000 0.000000 9.020474 -0.079825 -0.472674 15.502861 0.690592 0.827108 -2.571716 0.869697 5.729455 0.000001 -0.000000 0.000000 0.685117 3.952922 -11.477671 0.000000 0.000000 0.000000 74.095805 -65.119208 4.518406 0.000002 -18.201454 0.000014 -25.061798 7.453132 -4.314695 21.734256 5.841480 -2.497397 -16.162762 18.936377 19.036132 -9.576511 8.451319 10.577064 0.000002 0.000000 -0.000001 0.152624 1.444570 -12.061576 0.086630 1.091013 -9.079583 -0.000001 0.000001 -0.000000 0.152217 1.442685 -12.045590 0.086936 1.092927 -9.095567 -0.000000 0.000001 0.000001 0.152624 1.444570 -12.061576 0.086630 1.091013 -9.079584 0.000000 -0.000000 0.000000 0.985191 5.412796 -11.600974 0.078384 -2.964047 -9.583911 0.000002 0.000000 -0.000001 1.416784 0.355711 10.790262 0.000000 0.000000 0.000000 8.863867 40.086571 57.830624 0.000005 26.055136 -0.000011 37.317053 -9.887083 12.959796 -0.389741 -6.638714 -15.665594 8.907259 -22.771345 0.157752 0.754307 -6.942801 -2.431193 0.000001 0.000002 0.000002 0.174550 -1.551241 12.839272 0.140312 -1.392662 11.506928 -0.000000 0.000000 0.000001 0.174555 -1.551248 12.839279 0.140304 -1.392646 11.506930 -0.000000 -0.000000 -0.000002 0.174549 -1.551241 12.839272 0.140312 -1.392663 11.506931 -0.000000 0.000000 0.000000 0.174550 -1.551242 12.839272 0.140311 -1.392663 11.506929 -0.000000 0.000000 0.000002 -35.914477 19.928072 11.732552 42.374729 -8.946231 10.081616 3.381620 -8.054297 -0.462819 -0.915563 -0.000002 -0.000003 -0.000000 0.000000 -0.000000 -27.354464 -34.939440 -2.695494 39.179932 9.484037 -10.270348 0.948959 6.503403 -5.658021 -0.000018 0.000000 -0.000001 0.000000 0.000000 0.000000 
